# xmcd CD database file
#
# Track frame offsets:
#	150
#	19472
#	41728
#	59132
#	77732
#	93764
#	114175
#	132315
#	148869
#	166029
#	186342
#	201156
#	227676
#	249955
#
# Disc length: 3562 seconds
#
# Revision: 2
# Processed by: cddbd v1.5.2PL0 Copyright (c) Steve Scherf et al.
# Submitted via: CDex 1.70beta2
#
DISCID=bf0de80e
DTITLE=さまざまなアーティスト - cutie pop collection Sweets
DYEAR=2002
DGENRE=JPop
TTITLE0=松浦亜弥/LOVE 涙色
TTITLE1=ZONE/secret base 〜君がくれたもの〜
TTITLE2=Whiteberry/桜並木道
TTITLE3=Hysteric Blue/春 〜spring〜
TTITLE4=PUFFY/あたらしい日々
TTITLE5=釈由美子/ドラマティックに恋をして
TTITLE6=大槻真希/RUN! RUN! RUN!
TTITLE7=Srrawberry JAM/サバイバル・ゲーム
TTITLE8=ヒトエ/レントゲン
TTITLE9=メロン記念日/さぁ!恋人になろう
TTITLE10=センチメンタル・バス/サイクリングビート330
TTITLE11=FLIP FLAP/Liv la la la Luv
TTITLE12=椎名へきる/あしたは消えない
TTITLE13=藤本美貴/会えない長い日曜日
EXTD=YEAR: 2002
EXTT0=
EXTT1=
EXTT2=
EXTT3=
EXTT4=
EXTT5=
EXTT6=
EXTT7=
EXTT8=
EXTT9=
EXTT10=
EXTT11=
EXTT12=
EXTT13=
PLAYORDER=
